<?xml version="1.0" standalone="no"?>
<!DOCTYPE svg PUBLIC "-//W3C//DTD SVG 20010904//EN"
 "http://www.w3.org/TR/2001/REC-SVG-20010904/DTD/svg10.dtd">
<svg version="1.0" xmlns="http://www.w3.org/2000/svg"
 width="512.000000pt" height="512.000000pt" viewBox="0 0 512.000000 512.000000"
 preserveAspectRatio="xMidYMid meet">

<g transform="translate(0.000000,512.000000) scale(0.100000,-0.100000)"
fill="#000000" stroke="none">
<path d="M1270 4899 c-267 -27 -519 -146 -711 -338 -417 -418 -459 -1078 -97
-1549 65 -84 208 -213 302 -271 105 -65 237 -120 366 -151 126 -31 361 -34
490 -6 466 100 816 450 916 916 13 62 18 127 18 240 0 133 -4 170 -27 261 -70
283 -248 543 -476 698 -229 155 -510 228 -781 200z m163 -430 c56 -29 57 -30
57 -341 l0 -288 281 0 c187 0 288 -4 302 -11 61 -31 77 -115 33 -166 l-24 -28
-294 -5 -293 -5 -5 -293 -5 -294 -28 -24 c-51 -44 -135 -28 -166 33 -7 14 -11
115 -11 302 l0 281 -287 0 c-258 0 -290 2 -309 18 -55 44 -59 109 -10 158 l34
34 286 0 286 0 0 286 0 286 34 34 c36 36 77 44 119 23z"/>
<path d="M2596 4413 c21 -37 54 -108 74 -158 l37 -90 584 -5 c524 -5 588 -7
628 -22 66 -27 135 -82 174 -140 69 -102 67 -79 67 -905 l0 -743 -352 0 c-383
-1 -462 -7 -569 -44 -103 -36 -175 -82 -259 -166 -84 -84 -130 -156 -166 -259
-37 -107 -43 -186 -44 -568 l0 -353 -745 0 c-728 0 -747 0 -807 21 -77 26
-140 70 -184 130 -71 97 -68 70 -74 718 l-5 584 -94 38 c-52 21 -121 54 -153
74 -33 19 -62 35 -64 35 -3 0 -4 -305 -2 -677 l3 -678 27 -80 c74 -217 236
-379 455 -453 l78 -27 817 -3 c900 -3 891 -4 1007 58 83 44 1357 1320 1395
1397 57 115 57 111 54 1001 l-3 817 -27 80 c-38 112 -91 197 -174 279 -82 83
-167 136 -279 174 l-80 27 -679 3 -678 3 38 -68z m919 -2803 l-420 -420 -3
237 c-1 130 2 260 7 289 28 150 149 275 295 304 23 4 153 8 291 9 l250 1 -420
-420z"/>
</g>
</svg>
