<?xml version="1.0" standalone="no"?>
<!DOCTYPE svg PUBLIC "-//W3C//DTD SVG 20010904//EN"
 "http://www.w3.org/TR/2001/REC-SVG-20010904/DTD/svg10.dtd">
<svg version="1.0" xmlns="http://www.w3.org/2000/svg"
 width="512.000000pt" height="512.000000pt" viewBox="0 0 512.000000 512.000000"
 preserveAspectRatio="xMidYMid meet">

<g transform="translate(0.000000,512.000000) scale(0.100000,-0.100000)"
fill="#000000" stroke="none">
<path d="M1999 5091 c-28 -29 -29 -32 -29 -135 l0 -106 -164 0 c-163 0 -163 0
-190 -26 l-26 -27 0 -429 0 -429 25 -24 24 -25 921 0 921 0 24 25 25 24 0 429
0 429 -26 27 c-27 26 -27 26 -190 26 l-164 0 0 106 c0 103 -1 106 -29 135
l-29 29 -532 0 -532 0 -29 -29z m973 -256 c3 -99 5 -106 31 -132 27 -28 28
-28 187 -31 l160 -3 0 -305 0 -304 -790 0 -790 0 0 304 0 305 160 3 c159 3
160 3 187 31 26 26 28 33 31 132 l4 105 408 0 408 0 4 -105z"/>
<path d="M2494 4731 c-108 -49 -133 -184 -50 -267 90 -90 243 -48 276 76 21
78 -17 156 -94 191 -52 23 -80 23 -132 0z"/>
<path d="M793 4632 c-12 -9 -27 -30 -32 -45 -16 -41 -15 -4482 0 -4526 23 -65
-106 -61 1799 -61 1905 0 1776 -4 1799 61 15 45 16 4482 0 4527 -21 60 -31 62
-319 62 -160 0 -269 -4 -281 -10 -61 -33 -57 -129 7 -156 25 -10 84 -14 229
-14 l195 0 0 -2145 0 -2145 -1630 0 -1630 0 0 2145 0 2145 195 0 c227 0 256 7
274 63 10 29 9 41 -4 66 -8 17 -24 35 -34 41 -12 6 -121 10 -283 10 -234 0
-265 -2 -285 -18z"/>
</g>
</svg>
